<svg version="1.1" id="Layer_1" xmlns="http://www.w3.org/2000/svg" xmlns:xlink="http://www.w3.org/1999/xlink" x="0px" y="0px"
	 width="100%" viewBox="0 0 1024 1024" enable-background="new 0 0 1024 1024" xml:space="preserve">
<path fill="#000000" opacity="1.000000" stroke="none" 
	d="
M266.891113,267.862854 
	C304.043610,237.941711 346.084717,218.724121 391.517639,205.807419 
	C391.852295,208.339310 390.125336,208.293533 389.069183,208.660843 
	C353.601257,220.995834 321.599457,239.640732 292.450500,263.036987 
	C248.911194,297.983612 216.906113,341.171356 201.187973,395.364929 
	C196.603622,411.170959 194.275574,427.387909 193.055557,443.877594 
	C191.225769,468.609253 193.706039,492.744843 201.322449,516.203918 
	C214.494308,556.774231 239.719589,588.010254 275.948334,610.508667 
	C302.456696,626.970581 331.354919,636.222839 362.227448,639.442078 
	C369.985046,640.250977 377.875763,639.732544 385.701202,639.963562 
	C389.403809,640.072815 391.017151,638.671509 391.300598,634.809387 
	C391.933289,626.188049 391.399536,617.536133 392.610535,608.919373 
	C396.242432,583.076477 403.874603,559.217163 424.794189,541.717163 
	C435.895874,532.430237 448.978394,528.024048 463.206177,526.617859 
	C464.028107,526.536621 464.869598,526.556641 465.691559,526.636719 
	C465.914581,526.658447 466.099396,527.072388 466.696747,527.763000 
	C457.532593,530.587769 449.780701,535.407043 442.881042,541.759338 
	C429.027374,554.513916 421.691498,570.743225 418.489380,588.802673 
	C412.771851,621.048462 417.284790,652.365173 428.825531,682.778625 
	C439.026642,709.661621 453.290863,734.170166 472.629822,755.543091 
	C491.081116,775.934998 512.397888,791.981201 539.935059,797.960510 
	C558.452820,801.981384 575.991516,799.886414 591.869019,788.734131 
	C592.526794,788.271973 593.186157,787.653625 594.206055,788.312927 
	C594.579102,790.129333 592.938232,790.757080 591.946045,791.658875 
	C569.952759,811.651550 544.430908,816.380920 516.219238,808.870239 
	C487.073242,801.110962 463.899323,783.928223 443.575348,762.347351 
	C437.975037,756.400635 432.696899,750.172485 427.872681,743.584106 
	C426.112000,741.179565 424.036499,740.365112 421.098694,740.316467 
	C357.121918,739.257202 301.854584,715.970215 253.779724,674.484741 
	C221.854919,646.935730 197.114227,614.074646 180.914490,575.021362 
	C172.661560,555.125732 167.427521,534.431519 164.485397,513.056885 
	C162.795151,500.777161 162.740677,488.521820 162.607269,476.214020 
	C162.261856,444.346802 168.632339,413.734589 180.159332,384.177856 
	C197.548309,339.590363 225.542282,302.649994 262.044189,271.962799 
	C263.573517,270.677063 265.088928,269.374786 266.891113,267.862854 
M382.908356,665.498962 
	C385.404724,665.541626 387.900940,665.598450 390.397461,665.622437 
	C392.341156,665.641052 393.823242,664.911255 393.450226,662.720154 
	C393.129822,660.837952 392.916077,658.408508 390.043091,658.708435 
	C377.530579,660.014832 364.979858,659.087036 351.251831,659.257568 
	C362.000793,662.945496 372.004181,664.159424 382.908356,665.498962 
z"/>
<path fill="#000000" opacity="1.000000" stroke="none" 
	d="
M600.820862,615.222168 
	C615.811890,639.721741 636.698425,656.884583 663.924072,668.647034 
	C655.633484,672.586121 648.676880,675.974243 641.650391,679.210449 
	C631.367981,683.946045 621.106689,688.740356 610.689514,693.163818 
	C606.498108,694.943665 605.275940,697.470581 605.229126,701.934937 
	C605.025269,721.412048 601.564941,740.087952 589.024292,755.846252 
	C577.372253,770.487854 561.906189,776.514160 543.351318,775.601624 
	C534.816772,775.181946 527.040344,772.685486 519.595520,768.790955 
	C517.891907,767.899780 515.843201,767.417419 514.750305,765.279968 
	C516.554016,763.862915 517.900452,765.422913 519.272156,765.904602 
	C535.938110,771.757507 551.427307,769.487915 564.388062,757.499634 
	C576.162354,746.608887 579.794189,732.160461 578.223022,716.461853 
	C577.083740,705.078064 575.811218,707.726929 567.897339,710.705444 
	C536.979004,722.342285 505.284149,730.963806 472.624481,736.025452 
	C470.386169,736.372375 468.752930,736.047180 467.393097,734.200745 
	C451.598175,712.753845 440.609924,689.054688 434.098663,663.253967 
	C434.062836,663.112183 434.172424,662.933716 434.375580,662.147522 
	C442.450104,660.366333 450.868683,658.704407 459.187744,656.641174 
	C499.849213,646.556152 538.296875,631.022156 574.478333,609.839417 
	C578.458557,607.509277 579.021240,605.359070 577.091125,601.472473 
	C575.411438,598.090088 574.375366,594.388062 572.698242,589.865723 
	C528.312073,617.201843 482.618805,640.659546 431.605408,651.975891 
	C429.571289,647.736267 429.612091,643.492981 428.941589,639.455872 
	C428.366089,635.990784 431.894806,636.306213 433.856934,635.843628 
	C446.529846,632.855896 458.849304,628.774170 470.899200,623.921692 
	C490.257202,616.126099 508.763947,606.631714 526.302246,595.291382 
	C527.682251,594.399109 528.994934,593.402649 530.898132,592.060242 
	C521.119507,578.055298 508.857635,567.838501 492.914978,562.417236 
	C476.686615,556.898743 460.927307,559.006226 445.655243,566.950378 
	C445.295471,564.029297 447.173767,563.451416 448.386505,562.569641 
	C470.524384,546.473999 494.173584,545.504089 518.780334,555.908508 
	C529.563110,560.467834 539.564575,566.537415 548.839294,573.648926 
	C552.277466,576.285217 554.454346,575.711975 557.357544,573.123718 
	C563.696411,567.472412 570.273438,562.088074 576.757446,556.599915 
	C577.868164,555.659790 578.756897,554.302429 581.112305,554.562805 
	C582.771118,576.139954 589.237122,596.346741 600.820862,615.222168 
z"/>
<path fill="#000000" opacity="1.000000" stroke="none" 
	d="
M725.451538,656.499817 
	C712.744507,668.145203 698.775330,665.367432 684.995911,660.553223 
	C645.977783,646.921143 619.189758,620.395813 604.641968,581.861633 
	C598.527344,565.665100 596.765503,548.621460 598.739319,531.303101 
	C598.976624,529.220764 599.692932,527.408936 601.177795,525.970215 
	C614.923218,512.650940 627.817261,498.398590 642.985718,486.627899 
	C653.282104,478.637878 664.987366,474.564148 678.642578,476.623779 
	C672.342224,480.812531 669.283325,488.785980 661.031738,490.521362 
	C650.264465,492.785828 641.360535,503.190582 639.351562,515.365051 
	C636.113281,534.989258 641.513794,552.745483 651.666870,569.096985 
	C668.584167,596.342285 691.935120,615.356018 723.719421,622.901184 
	C741.153564,627.039795 756.206909,622.125916 769.559387,610.874939 
	C773.503052,607.551941 777.193787,603.929565 781.023010,600.469238 
	C781.961487,599.621216 782.649475,598.253357 784.783203,598.766724 
	C782.092224,611.963928 776.913025,623.719666 765.953125,632.135376 
	C753.488586,641.706421 739.128845,648.196533 725.451538,656.499817 
z"/>
<path fill="#000000" opacity="1.000000" stroke="none" 
	d="
M882.511414,463.474121 
	C891.546265,457.474579 900.242859,451.618042 909.044250,445.923553 
	C911.509705,444.328491 912.614563,442.512146 912.758301,439.465240 
	C913.115906,431.880280 919.028687,427.461517 926.897522,428.444122 
	C934.408875,429.382080 938.664612,435.674469 937.225159,443.714081 
	C936.074036,450.143555 929.374329,454.172455 922.314819,452.480927 
	C919.729370,451.861420 917.616333,452.086609 915.284607,453.538330 
	C900.593445,462.685089 885.826172,471.710236 871.040100,480.703339 
	C868.619080,482.175842 867.958313,484.472626 867.348450,486.912933 
	C864.972351,496.420502 862.400208,505.884644 860.293274,515.451355 
	C859.332947,519.811890 856.949707,522.250793 853.104431,524.184631 
	C828.875488,536.369385 804.721924,548.704407 780.561829,561.025757 
	C759.660156,571.685425 738.764465,582.357117 717.915710,593.119568 
	C714.990356,594.629578 712.643494,594.854614 710.541870,591.892456 
	C710.958862,589.422546 713.263245,589.150024 714.893433,588.287048 
	C758.870178,565.007507 802.858765,541.750244 846.901428,518.595886 
	C850.447510,516.731567 852.369934,514.459229 853.070251,510.347046 
	C854.685303,500.863983 856.937378,491.490387 858.873474,482.060516 
	C859.442261,479.289978 860.793518,477.274719 863.262329,475.755676 
	C869.641235,471.830750 875.903809,467.716858 882.511414,463.474121 
z"/>
<path fill="#000000" opacity="1.000000" stroke="none" 
	d="
M698.728760,528.743286 
	C689.850281,536.298706 681.236816,543.617126 672.499939,551.040405 
	C669.320862,548.166077 669.440674,545.811829 672.507141,543.110962 
	C691.372070,526.495056 710.109985,509.734772 728.991638,493.138031 
	C744.000244,479.945648 759.131287,466.891998 774.270386,453.849152 
	C776.264587,452.131042 776.822205,450.124542 776.829529,447.677185 
	C776.848450,441.345428 777.177307,435.005951 776.948914,428.685211 
	C776.802429,424.631409 778.295410,421.835602 781.184143,419.132904 
	C794.924744,406.276917 808.485352,393.228699 822.173218,380.315887 
	C824.470764,378.148407 825.777649,375.935089 825.772400,372.556274 
	C825.761353,365.528595 830.247375,361.503479 837.197693,361.660339 
	C844.116577,361.816467 848.401855,366.199158 848.321960,373.037354 
	C848.243652,379.733276 843.676941,384.592072 836.908997,384.085938 
	C833.372314,383.821442 831.432495,385.167511 829.221313,387.342560 
	C816.040222,400.308685 802.822510,413.238983 789.480652,426.039246 
	C786.496216,428.902557 785.152100,431.908112 785.216492,436.116364 
	C785.310425,442.254272 784.580566,448.401123 784.334900,454.549500 
	C784.224609,457.311310 782.192627,458.608978 780.464905,460.059418 
	C759.294922,477.831207 738.070984,495.538727 716.883545,513.289795 
	C710.882812,518.317200 704.955078,523.431702 698.728760,528.743286 
z"/>
<path fill="#000000" opacity="1.000000" stroke="none" 
	d="
M765.875488,520.900940 
	C741.491943,538.090820 717.397522,555.068176 693.277405,572.008972 
	C691.952087,572.939819 690.751953,574.374084 688.902832,574.158142 
	C687.099304,573.947571 685.820007,572.714600 685.190063,571.155151 
	C684.351074,569.078430 686.247559,568.187012 687.518555,567.263306 
	C700.985413,557.476074 714.487244,547.737061 727.984314,537.991455 
	C768.755798,508.552277 810.453735,480.404266 850.562683,450.036926 
	C853.268982,447.987915 853.541504,445.715210 853.770447,442.804382 
	C854.240234,436.832428 858.508789,432.540344 864.230164,431.750031 
	C869.697388,430.994812 875.317261,434.214539 877.102661,439.124725 
	C879.135742,444.716156 877.317383,450.651245 872.731384,453.741211 
	C870.207520,455.441711 867.403076,455.624695 864.571167,455.354156 
	C861.052795,455.018097 858.219238,456.114563 855.329285,458.152069 
	C833.278503,473.698456 811.117859,489.088776 789.007568,504.550934 
	C781.367737,509.893646 773.773987,515.302185 765.875488,520.900940 
z"/>
<path fill="#000000" opacity="1.000000" stroke="none" 
	d="
M858.263672,554.578125 
	C865.594971,556.914001 871.512329,554.724915 877.612000,551.337891 
	C889.688293,544.632080 902.072266,538.477783 914.369263,532.174011 
	C916.746765,530.955200 918.125854,529.861267 917.912781,526.589111 
	C917.440918,519.341980 923.525757,513.603210 930.395264,514.056091 
	C938.826965,514.612000 943.765564,520.920105 942.207397,529.143616 
	C940.939514,535.835022 933.802979,540.243591 926.876892,537.832153 
	C923.491943,536.653625 921.341125,537.632874 918.618713,539.040222 
	C902.800171,547.217590 886.888916,555.215454 871.041565,563.337524 
	C868.635742,564.570496 866.254028,564.459595 863.761108,563.973755 
	C854.313232,562.132324 844.845398,560.387573 835.421936,558.429199 
	C832.011902,557.720581 829.101562,558.194763 825.965271,559.810852 
	C800.215881,573.079102 774.349365,586.120178 748.606934,599.401978 
	C743.493225,602.040344 738.646912,603.642212 733.291748,600.550293 
	C733.322327,598.605225 734.766296,598.224060 735.881592,597.631287 
	C765.135254,582.083252 794.408142,566.571350 823.646790,550.995178 
	C825.987793,549.748047 828.388123,549.333740 830.881836,549.757141 
	C839.876831,551.284607 848.851196,552.933350 858.263672,554.578125 
z"/>
<path fill="#000000" opacity="1.000000" stroke="none" 
	d="
M731.637573,452.782928 
	C730.397217,443.927002 730.824036,435.429047 730.585144,426.954681 
	C730.508850,424.249176 731.267151,422.210388 733.120972,420.250885 
	C737.118530,416.025360 740.943359,411.634674 744.790527,407.269012 
	C748.078796,403.537628 751.514526,400.522095 750.330383,394.113403 
	C749.154358,387.748566 754.590942,383.598633 761.373169,383.635895 
	C768.051086,383.672577 772.169678,387.541534 772.318909,393.918243 
	C772.471436,400.430054 768.422913,404.960846 761.708069,405.225159 
	C758.964539,405.333160 757.034363,406.144165 755.272278,408.200775 
	C750.187256,414.135590 744.762756,419.788696 739.850220,425.858826 
	C736.478760,430.024811 738.471497,435.186066 738.601929,439.860748 
	C738.763184,445.642700 739.676392,451.406647 740.329773,457.170959 
	C740.791626,461.244659 739.550720,464.333740 736.434998,467.272369 
	C714.284424,488.164001 692.306946,509.239166 670.270630,530.252014 
	C669.320374,531.158081 668.431152,532.231628 666.446045,531.789062 
	C665.109070,528.514221 665.187805,525.571350 668.044250,522.624939 
	C687.848877,502.196289 707.564819,481.681732 727.301575,461.187256 
	C729.473999,458.931458 732.110413,456.906952 731.637573,452.782928 
z"/>
<path fill="#000000" opacity="1.000000" stroke="none" 
	d="
M708.939087,540.970764 
	C699.930786,547.874756 691.222107,554.583435 682.460938,561.222900 
	C680.739136,562.527771 678.979309,564.962769 676.675171,561.862793 
	C674.630615,559.112061 676.629333,557.516663 678.441406,556.054993 
	C694.385620,543.193665 710.273926,530.260376 726.362427,517.581360 
	C752.391846,497.067993 778.566162,476.738495 804.659241,456.305695 
	C806.725220,454.687836 808.640564,453.188416 808.655457,449.897034 
	C808.687073,442.902832 813.013611,438.942963 819.578918,439.185303 
	C825.845520,439.416565 830.396240,444.027008 830.290710,450.037659 
	C830.179138,456.394379 825.488770,461.519196 819.089844,460.819275 
	C814.234131,460.288177 811.229065,462.542603 807.950562,465.056793 
	C778.215576,487.859253 748.483093,510.664978 718.748718,533.468140 
	C715.576477,535.900940 712.396606,538.323792 708.939087,540.970764 
z"/>
<path fill="#000000" opacity="1.000000" stroke="none" 
	d="
M754.934692,553.007202 
	C737.513794,563.168884 720.354797,573.056335 703.366211,583.228394 
	C699.603149,585.481567 697.320496,584.883240 694.939453,580.824158 
	C702.391052,576.151306 709.726746,571.371460 717.232727,566.875854 
	C747.647339,548.659119 778.178223,530.638489 809.090088,513.274414 
	C812.128052,511.567932 813.564331,509.366180 814.059631,505.860504 
	C814.768311,500.844482 818.208130,497.954346 823.212524,497.380096 
	C827.789917,496.854858 832.079651,497.937012 834.214966,502.416687 
	C836.237488,506.659485 836.307556,511.174377 833.111267,515.081482 
	C829.793884,519.136719 825.047668,519.501648 820.812561,517.860779 
	C817.677002,516.645996 815.812805,517.646240 813.534729,518.970581 
	C794.111084,530.262268 774.684021,541.547974 754.934692,553.007202 
z"/>
</svg>