<svg width="320" height="400" viewBox="0 0 320 400" fill="none" xmlns="http://www.w3.org/2000/svg">
  <!-- Background abstract shapes -->
  <rect x="20" y="50" width="80" height="80" rx="8" fill="#000000" transform="rotate(15)"/>
  <circle cx="250" cy="80" r="30" fill="#000000"/>
  <rect x="30" y="280" width="60" height="60" rx="8" fill="#000000" transform="rotate(45)"/>
  
  <!-- Main electrical tower -->
  <g transform="translate(160, 80)">
    <!-- Tower base and main structure -->
    <rect x="-3" y="0" width="6" height="280" fill="#000000"/>
    
    <!-- Cross arms -->
    <rect x="-50" y="40" width="100" height="4" fill="#000000"/>
    <rect x="-70" y="80" width="140" height="4" fill="#000000"/>
    <rect x="-90" y="120" width="180" height="4" fill="#000000"/>
    
    <!-- Support cables/wires -->
    <line x1="-50" y1="44" x2="-3" y2="80" stroke="#000000" stroke-width="2"/>
    <line x1="50" y1="44" x2="3" y2="80" stroke="#000000" stroke-width="2"/>
    <line x1="-70" y1="84" x2="-3" y2="120" stroke="#000000" stroke-width="2"/>
    <line x1="70" y1="84" x2="3" y2="120" stroke="#000000" stroke-width="2"/>
    
    <!-- Power lines extending outward -->
    <path d="M -90 124 Q -140 140 -200 124" stroke="#000000" stroke-width="2" fill="none"/>
    <path d="M 90 124 Q 140 140 200 124" stroke="#000000" stroke-width="2" fill="none"/>
    <path d="M -90 124 Q -45 140 0 124 Q 45 140 90 124" stroke="#000000" stroke-width="2" fill="none"/>
    
    <!-- Yellow accent section -->
    <rect x="-8" y="180" width="16" height="80" fill="#84CC16" rx="4"/>
    
    <!-- Additional tower details -->
    <rect x="-30" y="160" width="60" height="3" fill="#000000"/>
    <rect x="-20" y="200" width="40" height="3" fill="#000000"/>
  </g>
  
  <!-- More abstract line work -->
  <g stroke="#000000" stroke-width="1" fill="none">
    <path d="M 10 150 L 80 180 L 50 220"/>
    <path d="M 270 160 L 300 190 L 280 230"/>
    <path d="M 40 320 L 90 340 L 70 370"/>
  </g>
</svg>
